<svg width="43" height="13" viewBox="0 0 43 13" fill="none" xmlns="http://www.w3.org/2000/svg">
<path d="M4.896 12.192C7.472 12.192 9.168 10.768 9.168 8.496C9.168 6.336 7.552 5.04 5.744 5.04C4.768 5.04 3.904 5.424 3.392 5.936V3.328H8.448V1.328H1.12V7.456L2.704 7.872C3.344 7.264 4.064 7.008 4.944 7.008C6.16 7.008 6.864 7.648 6.864 8.592C6.864 9.456 6.144 10.176 4.88 10.176C3.76 10.176 2.768 9.76 2.048 9.008L0.784 10.592C1.696 11.584 3.04 12.192 4.896 12.192ZM18.5184 12V10H14.1664C16.9344 7.984 18.4384 6.4 18.4384 4.576C18.4384 2.448 16.6304 1.168 14.3584 1.168C12.8704 1.168 11.2864 1.712 10.2464 2.912L11.5424 4.416C12.2624 3.664 13.1904 3.184 14.4064 3.184C15.2864 3.184 16.1344 3.648 16.1344 4.576C16.1344 5.888 14.8544 6.992 10.4864 10.224V12H18.5184ZM24.2881 12.192C27.3281 12.192 28.7041 9.424 28.7041 6.672C28.7041 3.92 27.3281 1.168 24.2881 1.168C21.2321 1.168 19.8721 3.92 19.8721 6.672C19.8721 9.424 21.2321 12.192 24.2881 12.192ZM24.2881 10.176C22.7521 10.176 22.1761 8.64 22.1761 6.672C22.1761 4.704 22.7521 3.184 24.2881 3.184C25.8081 3.184 26.3841 4.704 26.3841 6.672C26.3841 8.64 25.8081 10.176 24.2881 10.176ZM34.7838 12V10.288H33.5038V8.736H34.7838V7.488H33.5038V5.504H34.7838V0.575999H38.4318C39.9038 0.575999 40.9758 0.874666 41.6478 1.472C42.3304 2.06933 42.6718 2.89067 42.6718 3.936C42.6718 4.55467 42.5331 5.136 42.2558 5.68C41.9784 6.224 41.5144 6.66133 40.8638 6.992C40.2238 7.32267 39.3491 7.488 38.2398 7.488H37.1998V8.736H39.6638V10.288H37.1998V12H34.7838ZM37.1998 5.504H37.9998C38.6824 5.504 39.2211 5.38667 39.6158 5.152C40.0211 4.91733 40.2238 4.53867 40.2238 4.016C40.2238 3.04533 39.5838 2.56 38.3038 2.56H37.1998V5.504Z" fill="white"/>
</svg>
