<svg width="18" height="18" viewBox="0 0 18 18" fill="none" xmlns="http://www.w3.org/2000/svg">
<path d="M6.33333 16.3333C7.06971 16.3333 7.66667 15.7363 7.66667 15C7.66667 14.2636 7.06971 13.6666 6.33333 13.6666C5.59695 13.6666 5 14.2636 5 15C5 15.7363 5.59695 16.3333 6.33333 16.3333Z" stroke="white" stroke-width="1.8" stroke-linecap="round" stroke-linejoin="round"/>
<path d="M14.3333 16.3333C15.0697 16.3333 15.6667 15.7363 15.6667 15C15.6667 14.2636 15.0697 13.6666 14.3333 13.6666C13.597 13.6666 13 14.2636 13 15C13 15.7363 13.597 16.3333 14.3333 16.3333Z" stroke="white" stroke-width="1.8" stroke-linecap="round" stroke-linejoin="round"/>
<path d="M4.78002 4.99996H16.3334L15.2134 10.5933C15.1524 10.9002 14.9854 11.1759 14.7417 11.3722C14.4979 11.5684 14.1929 11.6726 13.88 11.6666H6.83335C6.50781 11.6694 6.1925 11.5529 5.94689 11.3393C5.70128 11.1256 5.54233 10.8294 5.50002 10.5066L4.48669 2.82663C4.44466 2.50612 4.28764 2.21179 4.04482 1.9984C3.80201 1.78502 3.48994 1.66712 3.16669 1.66663H1.66669" stroke="white" stroke-width="1.8" stroke-linecap="round" stroke-linejoin="round"/>
</svg>
